Amstelvar-Roman-wght-max.ufo
<glyph name="exclam" format="2">
  <advance width="667"/>
  <unicode hex="0021"/>
  <outline>
    <contour>
      <point x="109" y="186" type="qcurve" smooth="yes"/>
      <point x="109" y="274"/>
      <point x="233" y="388"/>
      <point x="334" y="388" type="qcurve" smooth="yes"/>
      <point x="432" y="388"/>
      <point x="558" y="272"/>
      <point x="558" y="186" type="qcurve" smooth="yes"/>
      <point x="558" y="99"/>
      <point x="433" y="-22"/>
      <point x="334" y="-22" type="qcurve" smooth="yes"/>
      <point x="234" y="-22"/>
      <point x="109" y="101"/>
    </contour>
    <contour>
      <point x="104" y="1329.0" type="line" smooth="yes"/>
      <point x="100" y="1430"/>
      <point x="206" y="1625.0"/>
      <point x="332" y="1625.0" type="qcurve" smooth="yes"/>
      <point x="451" y="1625.0"/>
      <point x="568" y="1426.0"/>
      <point x="564" y="1330.0" type="qcurve" smooth="yes"/>
      <point x="554" y="1108" type="line"/>
      <point x="393" y="800" type="line"/>
      <point x="380" y="553" type="line"/>
      <point x="286" y="553" type="line"/>
      <point x="273" y="800" type="line"/>
      <point x="113" y="1108" type="line"/>
    </contour>
  </outline>
</glyph>
<glyph name="numbersign" format="2">
  <advance width="1093"/>
  <unicode hex="0023"/>
  <outline>
    <contour>
      <point x="15" y="326" type="line"/>
      <point x="15" y="656" type="line"/>
      <point x="1018" y="656" type="line"/>
      <point x="1018" y="326" type="line"/>
    </contour>
    <contour>
      <point x="75" y="828" type="line"/>
      <point x="75" y="1158" type="line"/>
      <point x="1078" y="1158" type="line"/>
      <point x="1078" y="828" type="line"/>
    </contour>
    <contour>
      <point x="97" y="-57" type="line"/>
      <point x="498" y="1540" type="line"/>
      <point x="608" y="1518" type="line"/>
      <point x="207" y="-79" type="line"/>
    </contour>
    <contour>
      <point x="489" y="-57" type="line"/>
      <point x="890" y="1540" type="line"/>
      <point x="1000" y="1518" type="line"/>
      <point x="599" y="-79" type="line"/>
    </contour>
  </outline>
</glyph>
<glyph name="asterisk" format="2">
  <advance width="832"/>
  <unicode hex="002A"/>
  <outline>
    <contour>
      <point x="416" y="645" type="qcurve" smooth="yes"/>
      <point x="354" y="645"/>
      <point x="286" y="724"/>
      <point x="300" y="784" type="qcurve" smooth="yes"/>
      <point x="343" y="949" type="line"/>
      <point x="332" y="958" type="line"/>
      <point x="205" y="838" type="line" smooth="yes"/>
      <point x="166" y="802"/>
      <point x="63" y="812"/>
      <point x="31" y="870" type="qcurve" smooth="yes"/>
      <point x="-2" y="926"/>
      <point x="44" y="1023"/>
      <point x="95" y="1039" type="qcurve" smooth="yes"/>
      <point x="255" y="1085" type="line"/>
      <point x="254" y="1099" type="line"/>
      <point x="95" y="1147" type="line" smooth="yes"/>
      <point x="45" y="1163"/>
      <point x="-2" y="1260"/>
      <point x="31" y="1318" type="qcurve" smooth="yes"/>
      <point x="63" y="1374"/>
      <point x="167" y="1385"/>
      <point x="205" y="1350" type="qcurve" smooth="yes"/>
      <point x="331" y="1226" type="line"/>
      <point x="342" y="1234" type="line"/>
      <point x="300" y="1403" type="line" smooth="yes"/>
      <point x="286" y="1465"/>
      <point x="356" y="1541"/>
      <point x="416" y="1541" type="qcurve" smooth="yes"/>
      <point x="478" y="1541"/>
      <point x="546" y="1463"/>
      <point x="532" y="1403" type="qcurve" smooth="yes"/>
      <point x="488" y="1238" type="line"/>
      <point x="502" y="1229" type="line"/>
      <point x="626" y="1350" type="line"/>
      <point x="666" y="1385"/>
      <point x="769" y="1374"/>
      <point x="801" y="1317" type="qcurve" smooth="yes"/>
      <point x="834" y="1260"/>
      <point x="788" y="1163"/>
      <point x="737" y="1147" type="qcurve" smooth="yes"/>
      <point x="576" y="1101" type="line"/>
      <point x="578" y="1088" type="line"/>
      <point x="737" y="1040" type="line" smooth="yes"/>
      <point x="787" y="1023"/>
      <point x="834" y="926"/>
      <point x="801" y="869" type="qcurve" smooth="yes"/>
      <point x="769" y="812"/>
      <point x="666" y="801"/>
      <point x="626" y="837" type="qcurve"/>
      <point x="505" y="958" type="line"/>
      <point x="491" y="949" type="line"/>
      <point x="533" y="784" type="line" smooth="yes"/>
      <point x="547" y="724"/>
      <point x="481" y="645"/>
    </contour>
  </outline>
</glyph>
<glyph name="three" format="2">
  <advance width="1158"/>
  <unicode hex="0033"/>
  <outline>
    <contour>
      <point x="5" y="121" type="qcurve"/>
      <point x="5" y="236" type="line"/>
      <point x="60" y="180"/>
      <point x="234" y="108"/>
      <point x="339" y="108" type="qcurve" smooth="yes"/>
      <point x="443" y="108"/>
      <point x="561" y="240"/>
      <point x="561" y="413" type="qcurve" smooth="yes"/>
      <point x="561" y="582"/>
      <point x="400" y="728"/>
      <point x="269" y="728" type="qcurve" smooth="yes"/>
      <point x="210" y="728" type="line"/>
      <point x="188" y="829" type="line"/>
      <point x="283" y="834" type="line" smooth="yes"/>
      <point x="410" y="840"/>
      <point x="539" y="993"/>
      <point x="539" y="1155" type="qcurve" smooth="yes"/>
      <point x="539" y="1293"/>
      <point x="430" y="1399"/>
      <point x="342" y="1399" type="qcurve" smooth="yes"/>
      <point x="258" y="1399"/>
      <point x="120" y="1348"/>
      <point x="47" y="1293" type="qcurve"/>
      <point x="47" y="1394" type="line"/>
      <point x="127" y="1457"/>
      <point x="375" y="1520"/>
      <point x="597" y="1520" type="qcurve" smooth="yes"/>
      <point x="844" y="1520"/>
      <point x="1094" y="1343"/>
      <point x="1094" y="1185" type="qcurve" smooth="yes"/>
      <point x="1094" y="1023"/>
      <point x="893" y="847"/>
      <point x="684" y="815" type="qcurve"/>
      <point x="684" y="808" type="line"/>
      <point x="883" y="791"/>
      <point x="1139" y="600"/>
      <point x="1139" y="416" type="qcurve" smooth="yes"/>
      <point x="1139" y="216"/>
      <point x="848" y="-23"/>
      <point x="547" y="-23" type="qcurve" smooth="yes"/>
      <point x="326" y="-23"/>
      <point x="63" y="61"/>
    </contour>
  </outline>
</glyph>
<glyph name="nine" format="2">
  <advance width="1471"/>
  <unicode hex="0039"/>
  <outline>
    <contour>
      <point x="36" y="1006" type="qcurve" smooth="yes"/>
      <point x="36" y="1244"/>
      <point x="348" y="1522"/>
      <point x="692" y="1522" type="qcurve" smooth="yes"/>
      <point x="1045" y="1522"/>
      <point x="1425" y="1186"/>
      <point x="1425" y="831" type="qcurve" smooth="yes"/>
      <point x="1425" y="434"/>
      <point x="918" y="-16"/>
      <point x="271" y="-43" type="qcurve"/>
      <point x="271" y="85" type="line"/>
      <point x="595" y="111"/>
      <point x="925" y="441"/>
      <point x="924" y="848" type="qcurve" smooth="yes"/>
      <point x="924" y="1216"/>
      <point x="801" y="1405"/>
      <point x="700" y="1405" type="qcurve" smooth="yes"/>
      <point x="606" y="1405"/>
      <point x="504" y="1270"/>
      <point x="504" y="1033" type="qcurve" smooth="yes"/>
      <point x="504" y="800"/>
      <point x="614" y="671"/>
      <point x="712" y="671" type="qcurve" smooth="yes"/>
      <point x="747" y="671"/>
      <point x="809" y="685"/>
      <point x="830" y="692" type="qcurve"/>
      <point x="845" y="620" type="line"/>
      <point x="817" y="588"/>
      <point x="673" y="535"/>
      <point x="571" y="535" type="qcurve" smooth="yes"/>
      <point x="319" y="535"/>
      <point x="36" y="777"/>
    </contour>
  </outline>
</glyph>
<glyph name="semicolon" format="2">
  <advance width="718"/>
  <unicode hex="003B"/>
  <outline>
    <contour>
      <point x="117" y="-252" type="line"/>
      <point x="183" y="-216"/>
      <point x="327" y="-92"/>
      <point x="372" y="-9" type="qcurve"/>
      <point x="241" y="-7"/>
      <point x="117" y="99"/>
      <point x="117" y="181" type="qcurve" smooth="yes"/>
      <point x="117" y="247"/>
      <point x="250" y="320"/>
      <point x="360" y="320" type="qcurve" smooth="yes"/>
      <point x="470" y="320"/>
      <point x="604" y="253"/>
      <point x="604" y="173" type="qcurve" smooth="yes"/>
      <point x="604" y="36"/>
      <point x="334" y="-265"/>
      <point x="177" y="-326" type="qcurve"/>
    </contour>
    <contour>
      <point x="114" y="887" type="qcurve" smooth="yes"/>
      <point x="114" y="959"/>
      <point x="246" y="1077"/>
      <point x="361" y="1077" type="qcurve" smooth="yes"/>
      <point x="473" y="1077"/>
      <point x="610" y="959"/>
      <point x="610" y="887" type="qcurve" smooth="yes"/>
      <point x="610" y="811"/>
      <point x="463" y="737"/>
      <point x="361" y="737" type="qcurve" smooth="yes"/>
      <point x="260" y="737"/>
      <point x="114" y="811"/>
    </contour>
  </outline>
</glyph>
<glyph name="less" format="2">
  <advance width="696"/>
  <unicode hex="003C"/>
  <outline>
    <contour>
      <point x="32" y="634" type="qcurve"/>
      <point x="32" y="634"/>
      <point x="407" y="1077"/>
      <point x="462" y="1140" type="qcurve" smooth="yes"/>
      <point x="517" y="1202"/>
      <point x="690" y="1053"/>
      <point x="645" y="990" type="qcurve" smooth="yes"/>
      <point x="561" y="873"/>
      <point x="372" y="637"/>
      <point x="372" y="637" type="qcurve"/>
      <point x="372" y="637"/>
      <point x="567" y="401"/>
      <point x="644" y="294" type="qcurve" smooth="yes"/>
      <point x="689" y="233"/>
      <point x="524" y="73"/>
      <point x="471" y="134" type="qcurve" smooth="yes"/>
      <point x="416" y="197"/>
      <point x="32" y="634"/>
    </contour>
  </outline>
</glyph>
<glyph name="question" format="2">
  <advance width="1000"/>
  <unicode hex="003F"/>
  <outline>
    <contour>
      <point x="121" y="186" type="qcurve" smooth="yes"/>
      <point x="121" y="270"/>
      <point x="246" y="384"/>
      <point x="345" y="384" type="qcurve" smooth="yes"/>
      <point x="444" y="384"/>
      <point x="569" y="270"/>
      <point x="569" y="186" type="qcurve" smooth="yes"/>
      <point x="569" y="102"/>
      <point x="444" y="-22"/>
      <point x="345" y="-22" type="qcurve" smooth="yes"/>
      <point x="246" y="-22"/>
      <point x="121" y="102"/>
    </contour>
    <contour>
      <point x="18" y="1200" type="qcurve" smooth="yes"/>
      <point x="16" y="1354"/>
      <point x="280.0" y="1549.0"/>
      <point x="508" y="1549" type="qcurve" smooth="yes"/>
      <point x="771" y="1549"/>
      <point x="985.0" y="1364"/>
      <point x="985" y="1199" type="qcurve" smooth="yes"/>
      <point x="985" y="1039"/>
      <point x="843" y="850"/>
      <point x="604" y="817" type="qcurve" smooth="yes"/>
      <point x="425" y="793"/>
      <point x="268" y="697"/>
      <point x="299" y="643" type="qcurve" smooth="yes"/>
      <point x="318" y="600" type="line"/>
      <point x="217" y="554" type="line"/>
      <point x="185" y="605" type="line"/>
      <point x="141" y="684"/>
      <point x="236" y="836"/>
      <point x="373" y="895" type="qcurve" smooth="yes"/>
      <point x="499" y="950"/>
      <point x="580" y="1092"/>
      <point x="590" y="1200" type="qcurve" smooth="yes"/>
      <point x="601" y="1314"/>
      <point x="477" y="1433"/>
      <point x="334" y="1431" type="qcurve" smooth="yes"/>
      <point x="272.0" y="1430.0"/>
      <point x="195" y="1362.0"/>
      <point x="195" y="1310" type="qcurve" smooth="yes"/>
      <point x="195" y="1278"/>
      <point x="331" y="1198"/>
      <point x="331" y="1136" type="qcurve" smooth="yes"/>
      <point x="331" y="1079"/>
      <point x="255" y="1002"/>
      <point x="185" y="1002" type="qcurve" smooth="yes"/>
      <point x="114" y="1002"/>
      <point x="20" y="1100"/>
    </contour>
  </outline>
</glyph>
<glyph name="at" format="2">
  <advance width="1641"/>
  <unicode hex="0040"/>
  <outline>
    <contour>
      <point x="49" y="746" type="qcurve" smooth="yes"/>
      <point x="49" y="1065"/>
      <point x="473" y="1514"/>
      <point x="825" y="1514" type="qcurve" smooth="yes"/>
      <point x="1163" y="1514"/>
      <point x="1602" y="1134"/>
      <point x="1602" y="826" type="qcurve" smooth="yes"/>
      <point x="1602" y="593"/>
      <point x="1323" y="341"/>
      <point x="1135" y="341" type="qcurve" smooth="yes"/>
      <point x="1061" y="341"/>
      <point x="957" y="386"/>
      <point x="930" y="431" type="qcurve"/>
      <point x="891" y="387"/>
      <point x="765" y="334"/>
      <point x="686" y="334" type="qcurve" smooth="yes"/>
      <point x="554" y="334"/>
      <point x="404" y="465"/>
      <point x="404" y="581" type="qcurve" smooth="yes"/>
      <point x="404" y="705"/>
      <point x="655" y="861"/>
      <point x="941" y="917" type="qcurve"/>
      <point x="949" y="839" type="line"/>
      <point x="817" y="804"/>
      <point x="683" y="706"/>
      <point x="683" y="592" type="qcurve" smooth="yes"/>
      <point x="683" y="501"/>
      <point x="746" y="443"/>
      <point x="798" y="443" type="qcurve" smooth="yes"/>
      <point x="833" y="443"/>
      <point x="888" y="474"/>
      <point x="905" y="500" type="qcurve"/>
      <point x="905" y="887" type="line"/>
      <point x="905" y="994"/>
      <point x="817" y="1076"/>
      <point x="730" y="1076" type="qcurve" smooth="yes"/>
      <point x="668" y="1076"/>
      <point x="571" y="1041"/>
      <point x="532" y="1007" type="qcurve"/>
      <point x="562.0" y="999.0"/>
      <point x="600" y="957"/>
      <point x="600.0" y="918" type="qcurve" smooth="yes"/>
      <point x="600.0" y="883.0"/>
      <point x="561.0" y="846.0"/>
      <point x="530" y="846.0" type="qcurve" smooth="yes"/>
      <point x="485" y="846"/>
      <point x="439" y="902"/>
      <point x="439" y="952" type="qcurve" smooth="yes"/>
      <point x="439.0" y="1043"/>
      <point x="650" y="1191"/>
      <point x="799" y="1191" type="qcurve" smooth="yes"/>
      <point x="968" y="1191"/>
      <point x="1165" y="1050"/>
      <point x="1166" y="887" type="qcurve" smooth="yes"/>
      <point x="1170" y="488" type="line"/>
      <point x="1181" y="470"/>
      <point x="1210" y="458"/>
      <point x="1237" y="458" type="qcurve" smooth="yes"/>
      <point x="1321" y="458"/>
      <point x="1451" y="616"/>
      <point x="1451" y="787" type="qcurve" smooth="yes"/>
      <point x="1451" y="1042"/>
      <point x="1100" y="1375"/>
      <point x="830" y="1375" type="qcurve" smooth="yes"/>
      <point x="549" y="1375"/>
      <point x="202" y="1040"/>
      <point x="203" y="753" type="qcurve" smooth="yes"/>
      <point x="205" y="451"/>
      <point x="547" y="94"/>
      <point x="793" y="94" type="qcurve" smooth="yes"/>
      <point x="903" y="94"/>
      <point x="1074" y="138"/>
      <point x="1133" y="173" type="qcurve"/>
      <point x="1172" y="114" type="line"/>
      <point x="1107" y="50"/>
      <point x="906" y="-24"/>
      <point x="777" y="-24" type="qcurve" smooth="yes"/>
      <point x="476" y="-24"/>
      <point x="49" y="402"/>
    </contour>
  </outline>
</glyph>
<glyph name="B" format="2">
  <advance width="1590"/>
  <unicode hex="0042"/>
  <outline>
    <contour>
      <point x="51" y="0" type="line"/>
      <point x="51" y="100" type="line"/>
      <point x="187" y="136" type="line"/>
      <point x="189" y="784" type="line"/>
      <point x="187" y="1352" type="line"/>
      <point x="51" y="1386" type="line"/>
      <point x="51" y="1500" type="line"/>
      <point x="1022" y="1500" type="line" smooth="yes"/>
      <point x="1262" y="1500"/>
      <point x="1467" y="1312"/>
      <point x="1467" y="1169" type="qcurve" smooth="yes"/>
      <point x="1467" y="1034"/>
      <point x="1342" y="854"/>
      <point x="1220" y="831" type="qcurve"/>
      <point x="1220" y="824" type="line"/>
      <point x="1362" y="796"/>
      <point x="1545" y="604"/>
      <point x="1545" y="433" type="qcurve" smooth="yes"/>
      <point x="1545" y="246"/>
      <point x="1301" y="0"/>
      <point x="1051" y="0" type="qcurve" smooth="yes"/>
    </contour>
    <contour>
      <point x="685" y="135" type="line"/>
      <point x="709" y="115" type="line"/>
      <point x="795" y="115" type="line" smooth="yes"/>
      <point x="926" y="115"/>
      <point x="1045" y="267"/>
      <point x="1045" y="440" type="qcurve" smooth="yes"/>
      <point x="1045" y="598"/>
      <point x="939" y="738"/>
      <point x="839" y="738" type="qcurve" smooth="yes"/>
      <point x="685" y="738" type="line"/>
      <point x="683" y="728" type="line"/>
    </contour>
    <contour>
      <point x="683" y="872" type="line"/>
      <point x="682" y="852" type="line"/>
      <point x="784" y="852" type="line" smooth="yes"/>
      <point x="884" y="852"/>
      <point x="968" y="991"/>
      <point x="968" y="1129" type="qcurve" smooth="yes"/>
      <point x="968" y="1257"/>
      <point x="887" y="1370"/>
      <point x="791" y="1370" type="qcurve" smooth="yes"/>
      <point x="704" y="1370" type="line"/>
      <point x="686" y="1357" type="line"/>
    </contour>
  </outline>
</glyph>
<glyph name="C" format="2">
  <advance width="1384"/>
  <unicode hex="0043"/>
  <outline>
    <contour>
      <point x="50" y="733" type="qcurve" smooth="yes"/>
      <point x="50" y="1128"/>
      <point x="495" y="1514"/>
      <point x="825" y="1514" type="qcurve" smooth="yes"/>
      <point x="955" y="1514"/>
      <point x="1143" y="1473"/>
      <point x="1209" y="1438" type="qcurve"/>
      <point x="1233" y="1490" type="line"/>
      <point x="1314" y="1490" type="line"/>
      <point x="1314" y="1032" type="line"/>
      <point x="1212" y="1032" type="line"/>
      <point x="1152" y="1317" type="line"/>
      <point x="1115" y="1347"/>
      <point x="1011" y="1384"/>
      <point x="947" y="1384" type="qcurve" smooth="yes"/>
      <point x="777" y="1384"/>
      <point x="595" y="1153"/>
      <point x="595" y="762" type="qcurve" smooth="yes"/>
      <point x="596" y="390"/>
      <point x="795" y="123"/>
      <point x="968" y="123" type="qcurve" smooth="yes"/>
      <point x="1081" y="123"/>
      <point x="1242" y="240"/>
      <point x="1286" y="360" type="qcurve"/>
      <point x="1377" y="306" type="line"/>
      <point x="1313" y="139"/>
      <point x="1042" y="-24"/>
      <point x="823" y="-24" type="qcurve" smooth="yes"/>
      <point x="490" y="-24"/>
      <point x="50" y="347"/>
    </contour>
  </outline>
</glyph>
<glyph name="M" format="2">
  <advance width="2115"/>
  <unicode hex="004D"/>
  <outline>
    <contour>
      <point x="51" y="0" type="line"/>
      <point x="51" y="100" type="line"/>
      <point x="187" y="135" type="line"/>
      <point x="189" y="754" type="line"/>
      <point x="187" y="1352" type="line"/>
      <point x="51" y="1386" type="line"/>
      <point x="51" y="1500" type="line"/>
      <point x="716" y="1500" type="line"/>
      <point x="879" y="927" type="line"/>
      <point x="1021" y="435" type="line"/>
      <point x="1166" y="917" type="line"/>
      <point x="1339" y="1500" type="line"/>
      <point x="2065" y="1500" type="line"/>
      <point x="2065" y="1386" type="line"/>
      <point x="1928" y="1352" type="line"/>
      <point x="1926" y="754" type="line"/>
      <point x="1928" y="135" type="line"/>
      <point x="2065" y="100" type="line"/>
      <point x="2065" y="0" type="line"/>
      <point x="1269" y="0" type="line"/>
      <point x="1269" y="100" type="line"/>
      <point x="1425" y="135" type="line"/>
      <point x="1428" y="752" type="line"/>
      <point x="1425" y="1327" type="line"/>
      <point x="1266" y="768" type="line"/>
      <point x="1067" y="-5" type="line"/>
      <point x="662" y="-5" type="line"/>
      <point x="476" y="736" type="line"/>
      <point x="310" y="1338" type="line"/>
      <point x="308" y="754" type="line"/>
      <point x="310" y="135" type="line"/>
      <point x="453" y="100" type="line"/>
      <point x="453" y="0" type="line"/>
    </contour>
  </outline>
</glyph>
<glyph name="O" format="2">
  <advance width="1873"/>
  <unicode hex="004F"/>
  <outline>
    <contour>
      <point x="50" y="743" type="qcurve" smooth="yes"/>
      <point x="50" y="1105"/>
      <point x="501" y="1518"/>
      <point x="936" y="1518" type="qcurve" smooth="yes"/>
      <point x="1372" y="1518"/>
      <point x="1824" y="1123"/>
      <point x="1824" y="755" type="qcurve" smooth="yes"/>
      <point x="1824" y="402"/>
      <point x="1380" y="-24"/>
      <point x="942" y="-24" type="qcurve" smooth="yes"/>
      <point x="510" y="-24"/>
      <point x="50" y="388"/>
    </contour>
    <contour>
      <point x="594" y="771" type="qcurve" smooth="yes"/>
      <point x="594" y="406"/>
      <point x="773" y="107"/>
      <point x="938" y="107" type="qcurve" smooth="yes"/>
      <point x="1111" y="107"/>
      <point x="1279" y="386"/>
      <point x="1279" y="749" type="qcurve" smooth="yes"/>
      <point x="1279" y="1093"/>
      <point x="1100" y="1379"/>
      <point x="938" y="1379" type="qcurve" smooth="yes"/>
      <point x="767" y="1379"/>
      <point x="594" y="1129"/>
    </contour>
  </outline>
</glyph>
<glyph name="W" format="2">
  <advance width="2260"/>
  <unicode hex="0057"/>
  <outline>
    <contour>
      <point x="-20" y="1389" type="line"/>
      <point x="-20" y="1500" type="line"/>
      <point x="708" y="1500" type="line"/>
      <point x="708" y="1389" type="line"/>
      <point x="588" y="1348" type="line"/>
      <point x="721" y="873" type="line"/>
      <point x="865" y="378" type="line"/>
      <point x="996" y="829" type="line"/>
      <point x="1108" y="1230" type="line"/>
      <point x="1189" y="1041" type="line"/>
      <point x="1105" y="784" type="line"/>
      <point x="904" y="-5" type="line"/>
      <point x="471" y="-5" type="line"/>
      <point x="273" y="765" type="line"/>
      <point x="92" y="1350" type="line"/>
    </contour>
    <contour>
      <point x="871" y="1394" type="line"/>
      <point x="871" y="1500" type="line"/>
      <point x="1569" y="1500" type="line"/>
      <point x="1569" y="1394" type="line"/>
      <point x="1458" y="1353" type="line"/>
      <point x="1584" y="885" type="line"/>
      <point x="1729" y="381" type="line"/>
      <point x="1872" y="875" type="line"/>
      <point x="2001" y="1355" type="line"/>
      <point x="1870" y="1389" type="line"/>
      <point x="1870" y="1500" type="line"/>
      <point x="2283" y="1500" type="line"/>
      <point x="2283" y="1389" type="line"/>
      <point x="2154" y="1350" type="line"/>
      <point x="1994" y="837" type="line"/>
      <point x="1779" y="-5" type="line"/>
      <point x="1358" y="-5" type="line"/>
      <point x="1170" y="740" type="line"/>
      <point x="980" y="1355" type="line"/>
    </contour>
  </outline>
</glyph>
<glyph name="Z" format="2">
  <advance width="1261"/>
  <unicode hex="005A"/>
  <outline>
    <contour>
      <point x="52" y="0" type="line"/>
      <point x="22" y="92" type="line"/>
      <point x="664" y="1371" type="line"/>
      <point x="654" y="1382" type="line"/>
      <point x="218" y="1382" type="line"/>
      <point x="182" y="1084" type="line"/>
      <point x="68" y="1084" type="line"/>
      <point x="68" y="1500" type="line"/>
      <point x="1209" y="1500" type="line"/>
      <point x="1209" y="1409" type="line"/>
      <point x="576" y="121" type="line"/>
      <point x="587" y="108" type="line"/>
      <point x="1073" y="108" type="line"/>
      <point x="1149" y="361" type="line"/>
      <point x="1250" y="361" type="line"/>
      <point x="1210" y="0" type="line"/>
    </contour>
  </outline>
</glyph>
<glyph name="bracketright" format="2">
  <advance width="750"/>
  <unicode hex="005D"/>
  <outline>
    <contour>
      <point x="650" y="508" type="line"/>
      <point x="662" y="-342" type="line"/>
      <point x="681" y="-362" type="line"/>
      <point x="681" y="-480" type="line"/>
      <point x="44" y="-480" type="line"/>
      <point x="44" y="-361" type="line"/>
      <point x="234" y="-342" type="line"/>
      <point x="246" y="508" type="line"/>
      <point x="234" y="1362" type="line"/>
      <point x="44" y="1381" type="line"/>
      <point x="44" y="1500" type="line"/>
      <point x="681" y="1500" type="line"/>
      <point x="681" y="1382" type="line"/>
      <point x="662" y="1362" type="line"/>
    </contour>
  </outline>
</glyph>
<glyph name="underscore" format="2">
  <advance width="1053"/>
  <unicode hex="005F"/>
  <outline>
    <contour>
      <point x="-12" y="-481" type="line"/>
      <point x="-12" y="-232" type="line"/>
      <point x="529" y="-224" type="line"/>
      <point x="1064" y="-232" type="line"/>
      <point x="1064" y="-481" type="line"/>
      <point x="529" y="-477" type="line"/>
    </contour>
  </outline>
</glyph>
<glyph name="e" format="2">
  <advance width="1304"/>
  <unicode hex="0065"/>
  <outline>
    <contour>
      <point x="40" y="525" type="qcurve" smooth="yes"/>
      <point x="40" y="779"/>
      <point x="389" y="1072"/>
      <point x="691" y="1072" type="qcurve" smooth="yes"/>
      <point x="965" y="1072"/>
      <point x="1257" y="831"/>
      <point x="1285" y="614" type="qcurve"/>
      <point x="1285" y="553" type="line"/>
      <point x="468" y="553" type="line"/>
      <point x="468" y="645" type="line"/>
      <point x="907" y="645" type="line"/>
      <point x="897" y="811"/>
      <point x="806" y="958"/>
      <point x="719" y="958" type="qcurve" smooth="yes"/>
      <point x="634" y="958"/>
      <point x="533" y="779"/>
      <point x="533" y="556" type="qcurve" smooth="yes"/>
      <point x="534" y="316"/>
      <point x="691" y="122"/>
      <point x="838" y="122" type="qcurve" smooth="yes"/>
      <point x="951" y="122"/>
      <point x="1111" y="191"/>
      <point x="1161" y="239" type="qcurve"/>
      <point x="1236" y="186" type="line"/>
      <point x="1182" y="104"/>
      <point x="928" y="-22"/>
      <point x="716" y="-22" type="qcurve" smooth="yes"/>
      <point x="409" y="-22"/>
      <point x="40" y="262"/>
    </contour>
  </outline>
</glyph>
<glyph name="i" format="2">
  <advance width="805"/>
  <unicode hex="0069"/>
  <outline>
    <contour>
      <point x="50" y="0" type="line"/>
      <point x="50" y="80" type="line"/>
      <point x="163" y="115" type="line"/>
      <point x="165" y="552" type="line"/>
      <point x="159" y="900" type="line"/>
      <point x="44" y="930" type="line"/>
      <point x="44" y="1024" type="line"/>
      <point x="593" y="1052" type="line"/>
      <point x="638" y="1052" type="line"/>
      <point x="661" y="1013" type="line"/>
      <point x="654" y="552" type="line"/>
      <point x="656" y="115" type="line"/>
      <point x="764" y="80" type="line"/>
      <point x="764" y="0" type="line"/>
    </contour>
    <contour>
      <point x="126" y="1309" type="qcurve" smooth="yes"/>
      <point x="126" y="1389"/>
      <point x="267" y="1508"/>
      <point x="398" y="1508" type="qcurve" smooth="yes"/>
      <point x="523" y="1508"/>
      <point x="674" y="1391"/>
      <point x="673" y="1309" type="qcurve"/>
      <point x="673" y="1235"/>
      <point x="532" y="1182"/>
      <point x="400" y="1182" type="qcurve" smooth="yes"/>
      <point x="276" y="1182"/>
      <point x="126" y="1239"/>
    </contour>
  </outline>
</glyph>
<glyph name="j" format="2">
  <advance width="754"/>
  <unicode hex="006A"/>
  <outline>
    <contour>
      <point x="-2" y="-480.0" type="qcurve"/>
      <point x="-41.0" y="-340.0" type="line"/>
      <point x="71" y="-340"/>
      <point x="152" y="-238"/>
      <point x="152" y="-88" type="qcurve" smooth="yes"/>
      <point x="150" y="552" type="line"/>
      <point x="144" y="896" type="line"/>
      <point x="29" y="926" type="line"/>
      <point x="29" y="1020" type="line"/>
      <point x="576" y="1054" type="line"/>
      <point x="623" y="1054" type="line"/>
      <point x="646" y="1015" type="line"/>
      <point x="640" y="552" type="line"/>
      <point x="642" y="-134" type="line" smooth="yes"/>
      <point x="643" y="-331"/>
      <point x="379.0" y="-480.0"/>
    </contour>
    <contour>
      <point x="112" y="1307" type="qcurve" smooth="yes"/>
      <point x="112" y="1391"/>
      <point x="254" y="1508"/>
      <point x="387" y="1508" type="qcurve" smooth="yes"/>
      <point x="512" y="1508"/>
      <point x="660" y="1391"/>
      <point x="660" y="1308" type="qcurve" smooth="yes"/>
      <point x="660" y="1242"/>
      <point x="549" y="1181"/>
      <point x="387" y="1181" type="qcurve" smooth="yes"/>
      <point x="231" y="1181"/>
      <point x="112" y="1243"/>
    </contour>
  </outline>
</glyph>
<glyph name="n" format="2">
  <advance width="1591"/>
  <unicode hex="006E"/>
  <outline>
    <contour>
      <point x="46" y="0" type="line"/>
      <point x="46" y="80" type="line"/>
      <point x="150" y="115" type="line"/>
      <point x="152" y="552" type="line"/>
      <point x="150" y="896" type="line"/>
      <point x="46" y="926" type="line"/>
      <point x="46" y="1020" type="line"/>
      <point x="580" y="1054" type="line"/>
      <point x="615" y="1027" type="line"/>
      <point x="640" y="919" type="line"/>
      <point x="710" y="993"/>
      <point x="933" y="1073"/>
      <point x="1076" y="1073" type="qcurve" smooth="yes"/>
      <point x="1263" y="1073"/>
      <point x="1446" y="937"/>
      <point x="1446" y="828" type="qcurve" smooth="yes"/>
      <point x="1446" y="758"/>
      <point x="1444" y="554"/>
      <point x="1444" y="554" type="qcurve"/>
      <point x="1447" y="115" type="line"/>
      <point x="1550" y="80" type="line"/>
      <point x="1550" y="0" type="line"/>
      <point x="853" y="0" type="line"/>
      <point x="853" y="80" type="line"/>
      <point x="955" y="115" type="line"/>
      <point x="957" y="552" type="line"/>
      <point x="957" y="792" type="line" smooth="yes"/>
      <point x="957" y="851"/>
      <point x="887" y="914"/>
      <point x="828" y="914" type="qcurve" smooth="yes"/>
      <point x="772" y="915"/>
      <point x="669" y="859"/>
      <point x="639" y="816" type="qcurve"/>
      <point x="638" y="552" type="line"/>
      <point x="640" y="115" type="line"/>
      <point x="733" y="80" type="line"/>
      <point x="733" y="0" type="line"/>
    </contour>
  </outline>
</glyph>
<glyph name="q" format="2">
  <advance width="1529"/>
  <unicode hex="0071"/>
  <outline>
    <contour>
      <point x="43" y="511" type="qcurve" smooth="yes"/>
      <point x="43" y="781"/>
      <point x="354" y="1070"/>
      <point x="601" y="1070" type="qcurve" smooth="yes"/>
      <point x="704" y="1070"/>
      <point x="876" y="1022"/>
      <point x="930" y="984" type="qcurve"/>
      <point x="983" y="1055" type="line"/>
      <point x="1504" y="1023" type="line"/>
      <point x="1504" y="926" type="line"/>
      <point x="1401" y="904" type="line"/>
      <point x="1395" y="453" type="line"/>
      <point x="1396" y="-335" type="line"/>
      <point x="1502" y="-370" type="line"/>
      <point x="1502" y="-450" type="line"/>
      <point x="782" y="-450" type="line"/>
      <point x="782" y="-370" type="line"/>
      <point x="904" y="-335" type="line"/>
      <point x="910" y="121" type="line"/>
      <point x="850" y="57"/>
      <point x="660" y="-9"/>
      <point x="532" y="-9" type="qcurve" smooth="yes"/>
      <point x="329" y="-9"/>
      <point x="43" y="252"/>
    </contour>
    <contour>
      <point x="540" y="528" type="qcurve" smooth="yes"/>
      <point x="540" y="286"/>
      <point x="642" y="113"/>
      <point x="733" y="113" type="qcurve" smooth="yes"/>
      <point x="791" y="113"/>
      <point x="882" y="176"/>
      <point x="911" y="225" type="qcurve"/>
      <point x="913" y="880" type="line"/>
      <point x="887" y="914"/>
      <point x="801" y="953"/>
      <point x="743" y="953" type="qcurve" smooth="yes"/>
      <point x="651" y="953"/>
      <point x="540" y="769"/>
    </contour>
  </outline>
</glyph>
<glyph name="r" format="2">
  <advance width="1032"/>
  <unicode hex="0072"/>
  <anchor x="570" y="0" name="bottom"/>
  <outline>
    <contour>
      <point x="46" y="0" type="line"/>
      <point x="46" y="80" type="line"/>
      <point x="150" y="115" type="line"/>
      <point x="152" y="552" type="line"/>
      <point x="150" y="896" type="line"/>
      <point x="46" y="926" type="line"/>
      <point x="46" y="1020" type="line"/>
      <point x="579" y="1054" type="line"/>
      <point x="614" y="1027" type="line"/>
      <point x="636" y="940" type="line"/>
      <point x="687" y="991"/>
      <point x="845" y="1055"/>
      <point x="944" y="1055" type="qcurve" smooth="yes"/>
      <point x="1013" y="1055" type="line"/>
      <point x="1013" y="774" type="line"/>
      <point x="910" y="774" type="line"/>
      <point x="882" y="925" type="line"/>
      <point x="816" y="925"/>
      <point x="687" y="864"/>
      <point x="638" y="806" type="qcurve"/>
      <point x="636" y="552" type="line"/>
      <point x="639" y="115" type="line"/>
      <point x="750" y="80" type="line"/>
      <point x="750" y="0" type="line"/>
    </contour>
  </outline>
</glyph>
<glyph name="u" format="2">
  <advance width="1585"/>
  <unicode hex="0075"/>
  <outline>
    <contour>
      <point x="35" y="926" type="line"/>
      <point x="35" y="1020" type="line"/>
      <point x="569" y="1054" type="line"/>
      <point x="604" y="1054" type="line"/>
      <point x="629" y="1018" type="line"/>
      <point x="628" y="498" type="line"/>
      <point x="628" y="309" type="line" smooth="yes"/>
      <point x="628" y="213"/>
      <point x="697" y="141"/>
      <point x="759" y="141" type="qcurve" smooth="yes"/>
      <point x="815" y="141"/>
      <point x="916" y="205"/>
      <point x="949" y="268" type="qcurve"/>
      <point x="948" y="498" type="line"/>
      <point x="946" y="896" type="line"/>
      <point x="850" y="926" type="line"/>
      <point x="850" y="1020" type="line"/>
      <point x="1378" y="1054" type="line"/>
      <point x="1413" y="1054" type="line"/>
      <point x="1438" y="1018" type="line"/>
      <point x="1436" y="498" type="line"/>
      <point x="1438" y="144" type="line"/>
      <point x="1544" y="114" type="line"/>
      <point x="1544" y="30" type="line"/>
      <point x="1006" y="-4" type="line"/>
      <point x="971" y="23" type="line"/>
      <point x="950" y="149" type="line"/>
      <point x="883" y="75"/>
      <point x="649" y="-18"/>
      <point x="518" y="-18" type="qcurve" smooth="yes"/>
      <point x="328" y="-18"/>
      <point x="138" y="128"/>
      <point x="138" y="280" type="qcurve" smooth="yes"/>
      <point x="138" y="352"/>
      <point x="141" y="498"/>
      <point x="141" y="498" type="qcurve"/>
      <point x="136" y="896" type="line"/>
    </contour>
  </outline>
</glyph>
<glyph name="x" format="2">
  <advance width="1323"/>
  <unicode hex="0078"/>
  <outline>
    <contour>
      <point x="8" y="0" type="line"/>
      <point x="8" y="84" type="line"/>
      <point x="119" y="119" type="line"/>
      <point x="492" y="572" type="line"/>
      <point x="716" y="579" type="line"/>
      <point x="1016" y="930" type="line"/>
      <point x="918" y="960" type="line"/>
      <point x="918" y="1050" type="line"/>
      <point x="1249" y="1050" type="line"/>
      <point x="1249" y="960" type="line"/>
      <point x="1139" y="925" type="line"/>
      <point x="786" y="515" type="line"/>
      <point x="562" y="512" type="line"/>
      <point x="242" y="114" type="line"/>
      <point x="335" y="84" type="line"/>
      <point x="335" y="0" type="line"/>
    </contour>
    <contour>
      <point x="12" y="960" type="line"/>
      <point x="12" y="1050" type="line"/>
      <point x="743" y="1050" type="line"/>
      <point x="743" y="960" type="line"/>
      <point x="662" y="923" type="line"/>
      <point x="899" y="580" type="line"/>
      <point x="1222" y="119" type="line"/>
      <point x="1325" y="84" type="line"/>
      <point x="1325" y="0" type="line"/>
      <point x="567" y="0" type="line"/>
      <point x="567" y="84" type="line"/>
      <point x="661" y="121" type="line"/>
      <point x="405" y="496" type="line"/>
      <point x="100" y="925" type="line"/>
    </contour>
  </outline>
</glyph>
<glyph name="braceright" format="2">
  <advance width="802"/>
  <unicode hex="007D"/>
  <outline>
    <contour>
      <point x="17" y="-482" type="qcurve"/>
      <point x="17" y="-370" type="line"/>
      <point x="59" y="-372"/>
      <point x="105" y="-372"/>
      <point x="145" y="-372" type="qcurve" smooth="yes"/>
      <point x="217" y="-372"/>
      <point x="294" y="-280"/>
      <point x="294" y="-184" type="qcurve" smooth="yes"/>
      <point x="294" y="-84"/>
      <point x="139" y="230"/>
      <point x="139" y="331" type="qcurve" smooth="yes"/>
      <point x="139" y="408"/>
      <point x="245" y="531"/>
      <point x="369" y="554" type="qcurve"/>
      <point x="250" y="576"/>
      <point x="139" y="697"/>
      <point x="139" y="792" type="qcurve" smooth="yes"/>
      <point x="139" y="883"/>
      <point x="284" y="1107"/>
      <point x="284" y="1208" type="qcurve" smooth="yes"/>
      <point x="284" y="1304"/>
      <point x="208" y="1388"/>
      <point x="138" y="1388" type="qcurve" smooth="yes"/>
      <point x="98" y="1388"/>
      <point x="56" y="1388"/>
      <point x="14" y="1386" type="qcurve"/>
      <point x="14" y="1500" type="line"/>
      <point x="44" y="1503"/>
      <point x="291" y="1510"/>
      <point x="348" y="1510" type="qcurve" smooth="yes"/>
      <point x="480" y="1510"/>
      <point x="685" y="1343"/>
      <point x="685" y="1184" type="qcurve" smooth="yes"/>
      <point x="685" y="1066"/>
      <point x="536" y="834"/>
      <point x="536" y="736" type="qcurve" smooth="yes"/>
      <point x="536" y="662"/>
      <point x="617" y="607"/>
      <point x="669" y="599" type="qcurve" smooth="yes"/>
      <point x="759" y="589" type="line"/>
      <point x="759" y="481" type="line"/>
      <point x="537" y="481" type="line"/>
      <point x="537" y="364" type="line" smooth="yes"/>
      <point x="537" y="246"/>
      <point x="695" y="-50"/>
      <point x="695" y="-168" type="qcurve" smooth="yes"/>
      <point x="695" y="-327"/>
      <point x="499" y="-495"/>
      <point x="334" y="-495" type="qcurve" smooth="yes"/>
      <point x="277" y="-495"/>
      <point x="47" y="-485"/>
    </contour>
  </outline>
</glyph>
<glyph name="exclamdown" format="2">
  <advance width="951"/>
  <unicode hex="00A1"/>
  <outline>
    <contour>
      <point x="790" y="1035" type="qcurve" smooth="yes"/>
      <point x="790" y="908"/>
      <point x="613" y="721"/>
      <point x="476" y="721" type="qcurve" smooth="yes"/>
      <point x="338" y="721"/>
      <point x="162" y="908"/>
      <point x="162" y="1035" type="qcurve" smooth="yes"/>
      <point x="162" y="1160"/>
      <point x="338" y="1347"/>
      <point x="476" y="1347" type="qcurve" smooth="yes"/>
      <point x="613" y="1347"/>
      <point x="790" y="1160"/>
    </contour>
    <contour>
      <point x="766" y="-25" type="line" smooth="yes"/>
      <point x="771" y="-93"/>
      <point x="682" y="-321"/>
      <point x="478" y="-321" type="qcurve" smooth="yes"/>
      <point x="274" y="-321"/>
      <point x="180" y="-95"/>
      <point x="186" y="-26" type="qcurve" smooth="yes"/>
      <point x="197" y="148" type="line"/>
      <point x="414" y="456" type="line"/>
      <point x="426" y="633" type="line"/>
      <point x="527" y="633" type="line"/>
      <point x="539" y="456" type="line"/>
      <point x="754" y="148" type="line"/>
    </contour>
  </outline>
</glyph>
<glyph name="sterling" format="2">
  <advance width="1682"/>
  <unicode hex="00A3"/>
  <outline>
    <contour>
      <point x="1171" y="664" type="qcurve" smooth="yes"/>
      <point x="1171" y="559"/>
      <point x="906" y="451"/>
      <point x="667" y="445" type="qcurve"/>
      <point x="673" y="411" type="line"/>
      <point x="1397" y="406" type="line"/>
      <point x="1527" y="673" type="line"/>
      <point x="1640" y="673" type="line"/>
      <point x="1556" y="1" type="line"/>
      <point x="226" y="1" type="line"/>
      <point x="10" y="320" type="line"/>
      <point x="63" y="385" type="line"/>
      <point x="291" y="386"/>
      <point x="504" y="507"/>
      <point x="504" y="604" type="qcurve" smooth="yes"/>
      <point x="504" y="711"/>
      <point x="444" y="788"/>
      <point x="388" y="836" type="qcurve" smooth="yes"/>
      <point x="317" y="895"/>
      <point x="230" y="1039"/>
      <point x="230" y="1150" type="qcurve" smooth="yes"/>
      <point x="230" y="1274"/>
      <point x="672" y="1502"/>
      <point x="1076" y="1502" type="qcurve" smooth="yes"/>
      <point x="1185" y="1502"/>
      <point x="1519" y="1437"/>
      <point x="1581" y="1375" type="qcurve"/>
      <point x="1503" y="1265" type="line"/>
      <point x="1454" y="1308"/>
      <point x="1266" y="1364"/>
      <point x="1181" y="1364" type="qcurve" smooth="yes"/>
      <point x="1061" y="1364"/>
      <point x="911" y="1282"/>
      <point x="911" y="1194" type="qcurve" smooth="yes"/>
      <point x="911" y="1113"/>
      <point x="961" y="1007"/>
      <point x="1048" y="932" type="qcurve" smooth="yes"/>
      <point x="1140" y="853"/>
      <point x="1171" y="742"/>
    </contour>
    <contour>
      <point x="59" y="810" type="line"/>
      <point x="32" y="954" type="line"/>
      <point x="1540" y="954" type="line"/>
      <point x="1507" y="810" type="line"/>
    </contour>
  </outline>
</glyph>
<glyph name="brokenbar" format="2">
  <advance width="616"/>
  <unicode hex="00A6"/>
  <outline>
    <contour>
      <point x="224" y="683" type="line"/>
      <point x="233" y="900" type="line"/>
      <point x="221" y="1206" type="line"/>
      <point x="210" y="1475" type="line"/>
      <point x="406" y="1550" type="line"/>
      <point x="394" y="1208" type="line"/>
      <point x="380" y="900" type="line"/>
      <point x="382" y="733" type="line"/>
    </contour>
    <contour>
      <point x="210" y="-540" type="line"/>
      <point x="222" y="-128" type="line"/>
      <point x="235" y="180" type="line"/>
      <point x="233" y="351" type="line"/>
      <point x="391" y="411" type="line"/>
      <point x="382" y="180" type="line"/>
      <point x="394" y="-128" type="line"/>
      <point x="405" y="-465" type="line"/>
    </contour>
  </outline>
</glyph>
<glyph name="dieresis" format="2">
  <advance width="1024"/>
  <unicode hex="00A8"/>
  <outline>
    <contour>
      <point x="626" y="1377" type="qcurve" smooth="yes"/>
      <point x="626" y="1432"/>
      <point x="686" y="1491"/>
      <point x="742" y="1491" type="qcurve" smooth="yes"/>
      <point x="795" y="1491"/>
      <point x="858" y="1428"/>
      <point x="858" y="1377" type="qcurve" smooth="yes"/>
      <point x="858" y="1323"/>
      <point x="799" y="1264"/>
      <point x="742" y="1264" type="qcurve" smooth="yes"/>
      <point x="689" y="1264"/>
      <point x="626" y="1326"/>
    </contour>
    <contour>
      <point x="166" y="1377" type="qcurve" smooth="yes"/>
      <point x="166" y="1432"/>
      <point x="226" y="1491"/>
      <point x="282" y="1491" type="qcurve" smooth="yes"/>
      <point x="335" y="1491"/>
      <point x="398" y="1428"/>
      <point x="398" y="1377" type="qcurve" smooth="yes"/>
      <point x="398" y="1323"/>
      <point x="339" y="1264"/>
      <point x="282" y="1264" type="qcurve" smooth="yes"/>
      <point x="229" y="1264"/>
      <point x="166" y="1326"/>
    </contour>
  </outline>
</glyph>
<glyph name="copyright" format="2">
  <advance width="2398"/>
  <unicode hex="00A9"/>
  <outline>
    <contour>
      <point x="457" y="683" type="qcurve" smooth="yes"/>
      <point x="457" y="914"/>
      <point x="919" y="1229"/>
      <point x="1246" y="1229" type="qcurve" smooth="yes"/>
      <point x="1358" y="1229"/>
      <point x="1549" y="1185"/>
      <point x="1571" y="1172" type="qcurve"/>
      <point x="1596" y="1227" type="line"/>
      <point x="1689" y="1195" type="line"/>
      <point x="1732" y="768" type="line"/>
      <point x="1631" y="750" type="line"/>
      <point x="1544" y="1030" type="line"/>
      <point x="1522" y="1063"/>
      <point x="1359" y="1109"/>
      <point x="1254" y="1109" type="qcurve" smooth="yes"/>
      <point x="1155" y="1109"/>
      <point x="1027" y="927"/>
      <point x="1027" y="704" type="qcurve" smooth="yes"/>
      <point x="1027" y="515"/>
      <point x="1147" y="302"/>
      <point x="1275" y="302" type="qcurve" smooth="yes"/>
      <point x="1373" y="302"/>
      <point x="1648" y="393"/>
      <point x="1705" y="456" type="qcurve"/>
      <point x="1767" y="382" type="line"/>
      <point x="1701" y="299"/>
      <point x="1407" y="165"/>
      <point x="1277" y="165" type="qcurve" smooth="yes"/>
      <point x="934" y="165"/>
      <point x="457" y="459"/>
    </contour>
    <contour>
      <point x="100" y="685" type="qcurve" smooth="yes"/>
      <point x="100" y="1090"/>
      <point x="692" y="1564"/>
      <point x="1200" y="1570" type="qcurve" smooth="yes"/>
      <point x="1728" y="1576"/>
      <point x="2297" y="1108"/>
      <point x="2297" y="706" type="qcurve" smooth="yes"/>
      <point x="2297" y="290"/>
      <point x="1775" y="-242"/>
      <point x="1219" y="-242" type="qcurve" smooth="yes"/>
      <point x="689" y="-242"/>
      <point x="100" y="263"/>
    </contour>
    <contour>
      <point x="261" y="681" type="qcurve" smooth="yes"/>
      <point x="261" y="313"/>
      <point x="738" y="-109"/>
      <point x="1218" y="-109" type="qcurve" smooth="yes"/>
      <point x="1722" y="-109"/>
      <point x="2138" y="327"/>
      <point x="2138" y="698" type="qcurve" smooth="yes"/>
      <point x="2138" y="1067"/>
      <point x="1642" y="1437"/>
      <point x="1195" y="1437" type="qcurve" smooth="yes"/>
      <point x="766" y="1437"/>
      <point x="261" y="1053"/>
    </contour>
  </outline>
</glyph>
<glyph name="degree" format="2">
  <advance width="1521"/>
  <unicode hex="00B0"/>
  <outline>
    <contour>
      <point x="127" y="926" type="qcurve" smooth="yes"/>
      <point x="127" y="1182"/>
      <point x="483" y="1560"/>
      <point x="761" y="1560" type="qcurve" smooth="yes"/>
      <point x="1039" y="1560"/>
      <point x="1395" y="1182"/>
      <point x="1395" y="926" type="qcurve" smooth="yes"/>
      <point x="1395" y="676"/>
      <point x="1039" y="296"/>
      <point x="761" y="296" type="qcurve" smooth="yes"/>
      <point x="482" y="296"/>
      <point x="127" y="676"/>
    </contour>
    <contour>
      <point x="491" y="927" type="qcurve" smooth="yes"/>
      <point x="491" y="821"/>
      <point x="643" y="659"/>
      <point x="760" y="659" type="qcurve" smooth="yes"/>
      <point x="879" y="659"/>
      <point x="1030" y="822"/>
      <point x="1030" y="927" type="qcurve" smooth="yes"/>
      <point x="1030" y="1037"/>
      <point x="879" y="1197"/>
      <point x="761" y="1197" type="qcurve" smooth="yes"/>
      <point x="643" y="1197"/>
      <point x="491" y="1038"/>
    </contour>
  </outline>
</glyph>
<glyph name="twosuperior" format="2">
  <advance width="1122"/>
  <unicode hex="00B2"/>
  <outline>
    <contour>
      <point x="97" y="671" type="line"/>
      <point x="96" y="800" type="line"/>
      <point x="117" y="868"/>
      <point x="247" y="1010"/>
      <point x="378" y="1086" type="qcurve" smooth="yes"/>
      <point x="477" y="1142"/>
      <point x="524" y="1226"/>
      <point x="524" y="1294" type="qcurve" smooth="yes"/>
      <point x="524" y="1352"/>
      <point x="464" y="1403"/>
      <point x="384" y="1403" type="qcurve" smooth="yes"/>
      <point x="309" y="1403"/>
      <point x="174" y="1333"/>
      <point x="144" y="1308" type="qcurve"/>
      <point x="72" y="1396" type="line"/>
      <point x="129" y="1445"/>
      <point x="362" y="1520"/>
      <point x="527" y="1520" type="qcurve" smooth="yes"/>
      <point x="712" y="1520"/>
      <point x="1027" y="1410"/>
      <point x="1027" y="1305" type="qcurve" smooth="yes"/>
      <point x="1027" y="1201"/>
      <point x="775" y="1064"/>
      <point x="589" y="1022" type="qcurve" smooth="yes"/>
      <point x="480" y="1002"/>
      <point x="379" y="954"/>
      <point x="361" y="938" type="qcurve"/>
      <point x="365" y="920" type="line"/>
      <point x="1046" y="921" type="line"/>
      <point x="1046" y="671" type="line"/>
    </contour>
  </outline>
</glyph>
<glyph name="threesuperior" format="2">
  <advance width="985"/>
  <unicode hex="00B3"/>
  <outline>
    <contour>
      <point x="14" y="740" type="qcurve"/>
      <point x="67" y="835" type="line"/>
      <point x="113" y="798"/>
      <point x="214" y="760"/>
      <point x="277" y="760" type="qcurve" smooth="yes"/>
      <point x="342" y="760"/>
      <point x="422" y="820"/>
      <point x="422" y="905" type="qcurve" smooth="yes"/>
      <point x="422" y="987"/>
      <point x="305" y="1057"/>
      <point x="200" y="1057" type="qcurve" smooth="yes"/>
      <point x="163" y="1057" type="line"/>
      <point x="148" y="1157" type="line"/>
      <point x="214" y="1161" type="line" smooth="yes"/>
      <point x="314" y="1166"/>
      <point x="404" y="1237"/>
      <point x="404" y="1308" type="qcurve" smooth="yes"/>
      <point x="404" y="1364"/>
      <point x="341" y="1410"/>
      <point x="291" y="1410" type="qcurve" smooth="yes"/>
      <point x="237" y="1410"/>
      <point x="154" y="1390"/>
      <point x="95" y="1359" type="qcurve"/>
      <point x="52" y="1421" type="line"/>
      <point x="98" y="1467"/>
      <point x="301" y="1520"/>
      <point x="452" y="1520" type="qcurve" smooth="yes"/>
      <point x="651" y="1520"/>
      <point x="927" y="1429"/>
      <point x="927" y="1337" type="qcurve" smooth="yes"/>
      <point x="927" y="1256"/>
      <point x="714" y="1137"/>
      <point x="525" y="1120" type="qcurve"/>
      <point x="525" y="1114" type="line"/>
      <point x="714" y="1112"/>
      <point x="949" y="997"/>
      <point x="949" y="905" type="qcurve" smooth="yes"/>
      <point x="949" y="787"/>
      <point x="616" y="649"/>
      <point x="422" y="649" type="qcurve" smooth="yes"/>
      <point x="279" y="649"/>
      <point x="59" y="698"/>
    </contour>
  </outline>
</glyph>
<glyph name="acute" format="2">
  <advance width="1024"/>
  <unicode hex="00B4"/>
  <outline>
    <contour>
      <point x="747" y="1506" type="qcurve" smooth="yes"/>
      <point x="747" y="1459"/>
      <point x="707" y="1417"/>
      <point x="666" y="1389" type="qcurve" smooth="yes"/>
      <point x="363" y="1182" type="line"/>
      <point x="289" y="1258" type="line"/>
      <point x="500" y="1485" type="line" smooth="yes"/>
      <point x="535" y="1522"/>
      <point x="615" y="1584"/>
      <point x="652" y="1584" type="qcurve" smooth="yes"/>
      <point x="686" y="1584"/>
      <point x="747" y="1541"/>
    </contour>
  </outline>
</glyph>
<glyph name="paragraph" format="2">
  <advance width="1429"/>
  <unicode hex="00B6"/>
  <outline>
    <contour>
      <point x="1312" y="105" type="line"/>
      <point x="1312" y="0" type="line"/>
      <point x="347" y="0" type="line"/>
      <point x="347" y="107" type="line"/>
      <point x="952" y="149" type="line"/>
      <point x="953" y="538" type="line"/>
      <point x="937" y="536"/>
      <point x="617" y="526"/>
      <point x="536" y="526" type="qcurve" smooth="yes"/>
      <point x="303" y="526"/>
      <point x="32" y="822"/>
      <point x="32" y="1037" type="qcurve" smooth="yes"/>
      <point x="32" y="1260"/>
      <point x="290" y="1500"/>
      <point x="520" y="1500" type="qcurve" smooth="yes"/>
      <point x="1354" y="1500" type="line"/>
      <point x="1354" y="1380" type="line"/>
      <point x="1094" y="1346" type="line"/>
      <point x="1092" y="754" type="line"/>
      <point x="1094" y="152" type="line"/>
    </contour>
    <contour>
      <point x="743" y="59" type="line"/>
      <point x="597" y="52" type="line"/>
      <point x="598" y="811" type="line"/>
      <point x="742" y="815" type="line"/>
    </contour>
  </outline>
</glyph>
<glyph name="guillemetright" format="2">
  <advance width="2242"/>
  <unicode hex="00BB"/>
  <outline>
    <contour>
      <point x="2207" y="592" type="line"/>
      <point x="2091" y="513"/>
      <point x="1433" y="45"/>
      <point x="1348" y="-23" type="qcurve"/>
      <point x="1265" y="6"/>
      <point x="1079" y="312"/>
      <point x="1085" y="400" type="qcurve"/>
      <point x="1235" y="497"/>
      <point x="1508" y="668"/>
      <point x="1611" y="727" type="qcurve"/>
      <point x="1508" y="787"/>
      <point x="1185" y="980"/>
      <point x="1081" y="1034" type="qcurve"/>
      <point x="1079" y="1120"/>
      <point x="1252" y="1446"/>
      <point x="1320" y="1443" type="qcurve"/>
      <point x="1418" y="1367"/>
      <point x="2044" y="960"/>
      <point x="2203" y="868" type="qcurve"/>
    </contour>
    <contour>
      <point x="1125" y="593" type="line"/>
      <point x="1036" y="522"/>
      <point x="381" y="48"/>
      <point x="295" y="-20" type="qcurve"/>
      <point x="212" y="9"/>
      <point x="26" y="315"/>
      <point x="32" y="403" type="qcurve"/>
      <point x="180" y="498"/>
      <point x="454" y="668"/>
      <point x="557" y="727" type="qcurve"/>
      <point x="453" y="787"/>
      <point x="133" y="978"/>
      <point x="28" y="1031" type="qcurve"/>
      <point x="26" y="1117"/>
      <point x="200" y="1443"/>
      <point x="267" y="1440" type="qcurve"/>
      <point x="366" y="1364"/>
      <point x="992" y="947"/>
      <point x="1121" y="865" type="qcurve"/>
    </contour>
  </outline>
</glyph>
<glyph name="questiondown" format="2">
  <advance width="1428"/>
  <unicode hex="00BF"/>
  <outline>
    <contour>
      <point x="1088" y="1037" type="qcurve" smooth="yes"/>
      <point x="1088" y="911"/>
      <point x="912" y="724"/>
      <point x="775" y="724" type="qcurve" smooth="yes"/>
      <point x="638" y="724"/>
      <point x="460" y="911"/>
      <point x="460" y="1037" type="qcurve" smooth="yes"/>
      <point x="460" y="1162"/>
      <point x="637" y="1349"/>
      <point x="774" y="1349" type="qcurve" smooth="yes"/>
      <point x="911" y="1349"/>
      <point x="1088" y="1162"/>
    </contour>
    <contour>
      <point x="1395" y="149" type="qcurve"/>
      <point x="1397" y="-14"/>
      <point x="1044" y="-262"/>
      <point x="683" y="-262" type="qcurve" smooth="yes"/>
      <point x="336" y="-262"/>
      <point x="20" y="-101"/>
      <point x="20" y="88" type="qcurve" smooth="yes"/>
      <point x="20" y="248"/>
      <point x="348" y="417"/>
      <point x="588" y="450" type="qcurve" smooth="yes"/>
      <point x="766" y="474"/>
      <point x="917" y="567"/>
      <point x="892" y="624" type="qcurve" smooth="yes"/>
      <point x="873" y="667" type="line"/>
      <point x="974" y="713" type="line"/>
      <point x="1006" y="662" type="line" smooth="yes"/>
      <point x="1051" y="583"/>
      <point x="955" y="431"/>
      <point x="818" y="372" type="qcurve" smooth="yes"/>
      <point x="692" y="317"/>
      <point x="611" y="195"/>
      <point x="601" y="87" type="qcurve" smooth="yes"/>
      <point x="590" y="-27"/>
      <point x="714" y="-145"/>
      <point x="857" y="-144" type="qcurve" smooth="yes"/>
      <point x="988" y="-143"/>
      <point x="1139" y="-61"/>
      <point x="1139" y="-11" type="qcurve" smooth="yes"/>
      <point x="1139" y="36"/>
      <point x="941" y="151"/>
      <point x="941" y="242" type="qcurve" smooth="yes"/>
      <point x="941" y="324"/>
      <point x="1052" y="436"/>
      <point x="1154" y="436" type="qcurve" smooth="yes"/>
      <point x="1257" y="436"/>
      <point x="1397" y="293"/>
    </contour>
  </outline>
</glyph>
<glyph name="germandbls" format="2">
  <advance width="2227"/>
  <unicode hex="00DF"/>
  <outline>
    <contour>
      <point x="1936" y="1219" type="qcurve" smooth="yes"/>
      <point x="1929" y="1106"/>
      <point x="1716" y="962"/>
      <point x="1555" y="964" type="qcurve" smooth="yes"/>
      <point x="1344" y="964"/>
      <point x="1223" y="928"/>
      <point x="1219" y="880" type="qcurve" smooth="yes"/>
      <point x="1215" y="823"/>
      <point x="1360" y="787"/>
      <point x="1630" y="745" type="qcurve" smooth="yes"/>
      <point x="1890" y="705"/>
      <point x="2195" y="542"/>
      <point x="2195" y="377" type="qcurve" smooth="yes"/>
      <point x="2195" y="192"/>
      <point x="1895" y="-23"/>
      <point x="1636" y="-23" type="qcurve" smooth="yes"/>
      <point x="1362" y="-23"/>
      <point x="1091" y="33"/>
      <point x="1058" y="70" type="qcurve"/>
      <point x="1037" y="0" type="line"/>
      <point x="940" y="0" type="line"/>
      <point x="940" y="344" type="line"/>
      <point x="1045" y="344" type="line"/>
      <point x="1075" y="263" type="line" smooth="yes"/>
      <point x="1110" y="177"/>
      <point x="1288" y="95"/>
      <point x="1575" y="95" type="qcurve" smooth="yes"/>
      <point x="1773" y="95"/>
      <point x="1920" y="143"/>
      <point x="1920" y="201" type="qcurve" smooth="yes"/>
      <point x="1920" y="253"/>
      <point x="1746" y="303"/>
      <point x="1473" y="333" type="qcurve" smooth="yes"/>
      <point x="1223" y="355"/>
      <point x="935" y="553"/>
      <point x="941" y="716" type="qcurve" smooth="yes"/>
      <point x="947" y="882"/>
      <point x="1230" y="1067"/>
      <point x="1472" y="1054" type="qcurve" smooth="yes"/>
      <point x="1662" y="1053"/>
      <point x="1802" y="1142"/>
      <point x="1809" y="1230" type="qcurve" smooth="yes"/>
      <point x="1816" y="1311"/>
      <point x="1547" y="1423"/>
      <point x="1370" y="1423" type="qcurve" smooth="yes"/>
      <point x="1131" y="1423"/>
      <point x="844" y="1213"/>
      <point x="843" y="981" type="qcurve"/>
      <point x="844" y="509" type="line"/>
      <point x="853" y="31" type="line"/>
      <point x="826" y="-15" type="line"/>
      <point x="52" y="1" type="line"/>
      <point x="52" y="85" type="line"/>
      <point x="283" y="129" type="line"/>
      <point x="286" y="509" type="line"/>
      <point x="287" y="843" type="line" smooth="yes"/>
      <point x="288" y="1144"/>
      <point x="649" y="1540"/>
      <point x="1228" y="1540" type="qcurve" smooth="yes"/>
      <point x="1618" y="1540"/>
      <point x="1943" y="1349"/>
    </contour>
  </outline>
</glyph>
<glyph name="divide" format="2">
  <advance width="1533"/>
  <unicode hex="00F7"/>
  <outline>
    <contour>
      <point x="80" y="421" type="line"/>
      <point x="80" y="843" type="line"/>
      <point x="1453" y="843" type="line"/>
      <point x="1453" y="421" type="line"/>
    </contour>
    <contour>
      <point x="480" y="170" type="qcurve" smooth="yes"/>
      <point x="480" y="285"/>
      <point x="641" y="457"/>
      <point x="766" y="457" type="qcurve" smooth="yes"/>
      <point x="892" y="457"/>
      <point x="1052" y="285"/>
      <point x="1052" y="171" type="qcurve" smooth="yes"/>
      <point x="1052" y="59"/>
      <point x="892" y="-113"/>
      <point x="766" y="-113" type="qcurve" smooth="yes"/>
      <point x="641" y="-113"/>
      <point x="480" y="58"/>
    </contour>
    <contour>
      <point x="480" y="1093" type="qcurve" smooth="yes"/>
      <point x="480" y="1207"/>
      <point x="641" y="1379"/>
      <point x="766" y="1379" type="qcurve" smooth="yes"/>
      <point x="892" y="1379"/>
      <point x="1052" y="1208"/>
      <point x="1052" y="1093" type="qcurve" smooth="yes"/>
      <point x="1052" y="981"/>
      <point x="892" y="809"/>
      <point x="766" y="809" type="qcurve" smooth="yes"/>
      <point x="641" y="809"/>
      <point x="480" y="981"/>
    </contour>
  </outline>
</glyph>
<glyph name="idotless" format="2">
  <advance width="1158"/>
  <unicode hex="0131"/>
  <outline>
    <contour>
      <point x="75" y="0" type="line"/>
      <point x="75" y="85" type="line"/>
      <point x="307" y="129" type="line"/>
      <point x="309" y="562" type="line"/>
      <point x="304" y="878" type="line"/>
      <point x="72" y="918" type="line"/>
      <point x="72" y="1015" type="line"/>
      <point x="803" y="1050" type="line"/>
      <point x="852" y="1050" type="line"/>
      <point x="875" y="1010" type="line"/>
      <point x="870" y="561" type="line"/>
      <point x="871" y="129" type="line"/>
      <point x="1103" y="85" type="line"/>
      <point x="1103" y="0" type="line"/>
    </contour>
  </outline>
</glyph>
<glyph name="oe" format="2">
  <advance width="2688"/>
  <unicode hex="0153"/>
  <outline>
    <contour>
      <point x="64" y="526" type="qcurve" smooth="yes"/>
      <point x="64" y="756"/>
      <point x="505" y="1074"/>
      <point x="831" y="1074" type="qcurve" smooth="yes"/>
      <point x="993" y="1074"/>
      <point x="1310" y="982"/>
      <point x="1367" y="920" type="qcurve"/>
      <point x="1378" y="920" type="line"/>
      <point x="1426" y="977"/>
      <point x="1687" y="1074"/>
      <point x="1914" y="1074" type="qcurve" smooth="yes"/>
      <point x="2234" y="1074"/>
      <point x="2645" y="826"/>
      <point x="2659" y="600" type="qcurve"/>
      <point x="2659" y="550" type="line"/>
      <point x="1399" y="551" type="line"/>
      <point x="1399" y="654" type="line"/>
      <point x="2089" y="654" type="line"/>
      <point x="2080" y="793"/>
      <point x="1977" y="953"/>
      <point x="1892" y="953" type="qcurve" smooth="yes"/>
      <point x="1795" y="953"/>
      <point x="1680" y="756"/>
      <point x="1679" y="529" type="qcurve"/>
      <point x="1679" y="301"/>
      <point x="1917" y="114"/>
      <point x="2120" y="114" type="qcurve" smooth="yes"/>
      <point x="2299" y="114"/>
      <point x="2468" y="156"/>
      <point x="2540" y="194" type="qcurve"/>
      <point x="2607" y="128" type="line"/>
      <point x="2528" y="67"/>
      <point x="2219" y="-22"/>
      <point x="1994" y="-22" type="qcurve" smooth="yes"/>
      <point x="1694" y="-22"/>
      <point x="1426" y="56"/>
      <point x="1378" y="115" type="qcurve"/>
      <point x="1368" y="115" type="line"/>
      <point x="1296" y="55"/>
      <point x="1021" y="-22"/>
      <point x="819" y="-22" type="qcurve" smooth="yes"/>
      <point x="494" y="-22"/>
      <point x="64" y="289"/>
    </contour>
    <contour>
      <point x="635" y="529" type="qcurve" smooth="yes"/>
      <point x="636" y="314"/>
      <point x="775" y="95"/>
      <point x="881" y="95" type="qcurve" smooth="yes"/>
      <point x="995" y="95"/>
      <point x="1129" y="318"/>
      <point x="1129" y="532" type="qcurve" smooth="yes"/>
      <point x="1129" y="741"/>
      <point x="990" y="951"/>
      <point x="882" y="951" type="qcurve" smooth="yes"/>
      <point x="766" y="951"/>
      <point x="634" y="743"/>
    </contour>
  </outline>
</glyph>
<glyph name="jdotless" format="2">
  <advance width="877"/>
  <unicode hex="0237"/>
  <outline>
    <contour>
      <point x="-160" y="-386" type="line"/>
      <point x="-105" y="-310" type="line"/>
      <point x="-91" y="-317" type="line"/>
      <point x="-58" y="-331"/>
      <point x="-7" y="-348"/>
      <point x="61" y="-348" type="qcurve" smooth="yes"/>
      <point x="126" y="-348"/>
      <point x="188" y="-238"/>
      <point x="187" y="-88" type="qcurve" smooth="yes"/>
      <point x="184" y="567" type="line"/>
      <point x="180" y="878" type="line"/>
      <point x="-52" y="918" type="line"/>
      <point x="-52" y="1015" type="line"/>
      <point x="676" y="1050" type="line"/>
      <point x="729" y="1050" type="line"/>
      <point x="751" y="1011" type="line"/>
      <point x="746" y="563" type="line"/>
      <point x="748" y="-134" type="line" smooth="yes"/>
      <point x="749" y="-308"/>
      <point x="520" y="-488"/>
      <point x="313" y="-488" type="qcurve" smooth="yes"/>
      <point x="138" y="-488"/>
      <point x="-92" y="-428"/>
      <point x="-149" y="-393" type="qcurve" smooth="yes"/>
    </contour>
  </outline>
</glyph>
<glyph name="primemod" format="2">
  <advance width="1016"/>
  <unicode hex="02B9"/>
  <outline>
    <contour>
      <point x="242" y="1502" type="line"/>
      <point x="827" y="1502" type="line"/>
      <point x="697" y="815" type="line"/>
      <point x="169" y="820" type="line"/>
    </contour>
  </outline>
</glyph>
<glyph name="doubleprimemod" format="2">
  <advance width="1490"/>
  <unicode hex="02BA"/>
  <outline>
    <contour>
      <point x="226" y="1502" type="line"/>
      <point x="711" y="1502" type="line"/>
      <point x="598" y="813" type="line"/>
      <point x="170" y="818" type="line"/>
    </contour>
    <contour>
      <point x="928" y="1502" type="line"/>
      <point x="1413" y="1502" type="line"/>
      <point x="1300" y="813" type="line"/>
      <point x="872" y="818" type="line"/>
    </contour>
  </outline>
</glyph>
<glyph name="circumflex" format="2">
  <advance width="1024"/>
  <unicode hex="02C6"/>
  <outline>
    <contour>
      <point x="512" y="1581" type="qcurve" smooth="yes"/>
      <point x="546" y="1581"/>
      <point x="591" y="1550"/>
      <point x="622" y="1508" type="qcurve"/>
      <point x="825" y="1265" type="line"/>
      <point x="747" y="1192" type="line"/>
      <point x="512" y="1407" type="line"/>
      <point x="277" y="1192" type="line"/>
      <point x="199" y="1265" type="line"/>
      <point x="402" y="1508" type="line" smooth="yes"/>
      <point x="443" y="1557"/>
      <point x="478" y="1581"/>
    </contour>
  </outline>
</glyph>
<glyph name="breve" format="2">
  <advance width="1024"/>
  <unicode hex="02D8"/>
  <outline>
    <contour>
      <point x="788" y="1541" type="qcurve"/>
      <point x="866" y="1488" type="line"/>
      <point x="853" y="1395"/>
      <point x="642" y="1221"/>
      <point x="513" y="1221" type="qcurve" smooth="yes"/>
      <point x="384" y="1221"/>
      <point x="180" y="1375"/>
      <point x="158" y="1485" type="qcurve"/>
      <point x="240" y="1542" type="line"/>
      <point x="272" y="1485"/>
      <point x="417" y="1379"/>
      <point x="514" y="1377" type="qcurve" smooth="yes"/>
      <point x="614" y="1379"/>
      <point x="761" y="1487"/>
    </contour>
  </outline>
</glyph>
<glyph name="quotedblleft" format="2">
  <advance width="1799"/>
  <unicode hex="201C"/>
  <outline>
    <contour>
      <point x="777" y="1705" type="line"/>
      <point x="698" y="1642"/>
      <point x="482" y="1389"/>
      <point x="457" y="1298" type="qcurve"/>
      <point x="650" y="1285"/>
      <point x="825" y="1121"/>
      <point x="825" y="999" type="qcurve" smooth="yes"/>
      <point x="825" y="877"/>
      <point x="650" y="683"/>
      <point x="512" y="683" type="qcurve" smooth="yes"/>
      <point x="362" y="683"/>
      <point x="169" y="869"/>
      <point x="169" y="1038" type="qcurve" smooth="yes"/>
      <point x="169" y="1265"/>
      <point x="597" y="1701"/>
      <point x="721" y="1768" type="qcurve"/>
    </contour>
    <contour>
      <point x="1619" y="1705" type="line"/>
      <point x="1539" y="1642"/>
      <point x="1323" y="1389"/>
      <point x="1298" y="1298" type="qcurve"/>
      <point x="1492" y="1285"/>
      <point x="1667" y="1121"/>
      <point x="1667" y="999" type="qcurve" smooth="yes"/>
      <point x="1667" y="877"/>
      <point x="1492" y="683"/>
      <point x="1354" y="683" type="qcurve" smooth="yes"/>
      <point x="1204" y="683"/>
      <point x="1011" y="869"/>
      <point x="1011" y="1038" type="qcurve" smooth="yes"/>
      <point x="1011" y="1265"/>
      <point x="1438" y="1701"/>
      <point x="1563" y="1768" type="qcurve"/>
    </contour>
  </outline>
</glyph>
<glyph name="quotedblright" format="2">
  <advance width="1799"/>
  <unicode hex="201D"/>
  <outline>
    <contour>
      <point x="210" y="519" type="line"/>
      <point x="289" y="582"/>
      <point x="505" y="835"/>
      <point x="530" y="926" type="qcurve"/>
      <point x="337" y="939"/>
      <point x="162" y="1103"/>
      <point x="162" y="1225" type="qcurve" smooth="yes"/>
      <point x="162" y="1347"/>
      <point x="337" y="1541"/>
      <point x="475" y="1541" type="qcurve" smooth="yes"/>
      <point x="625" y="1541"/>
      <point x="818" y="1355"/>
      <point x="818" y="1186" type="qcurve" smooth="yes"/>
      <point x="818" y="959"/>
      <point x="390" y="523"/>
      <point x="266" y="456" type="qcurve"/>
    </contour>
    <contour>
      <point x="1052" y="519" type="line"/>
      <point x="1131" y="582"/>
      <point x="1347" y="835"/>
      <point x="1372" y="926" type="qcurve"/>
      <point x="1179" y="939"/>
      <point x="1004" y="1103"/>
      <point x="1004" y="1225" type="qcurve" smooth="yes"/>
      <point x="1004" y="1347"/>
      <point x="1179" y="1541"/>
      <point x="1317" y="1541" type="qcurve" smooth="yes"/>
      <point x="1467" y="1541"/>
      <point x="1660" y="1355"/>
      <point x="1660" y="1186" type="qcurve" smooth="yes"/>
      <point x="1660" y="959"/>
      <point x="1232" y="523"/>
      <point x="1108" y="456" type="qcurve"/>
    </contour>
  </outline>
</glyph>
<glyph name="perthousand" format="2">
  <advance width="4879"/>
  <unicode hex="2030"/>
  <outline>
    <contour>
      <point x="74" y="1081" type="qcurve" smooth="yes"/>
      <point x="74" y="1268"/>
      <point x="512" y="1522"/>
      <point x="819" y="1522" type="qcurve" smooth="yes"/>
      <point x="1125" y="1522"/>
      <point x="1567" y="1286"/>
      <point x="1567" y="1087" type="qcurve" smooth="yes"/>
      <point x="1567" y="902"/>
      <point x="1130" y="641"/>
      <point x="823" y="641" type="qcurve" smooth="yes"/>
      <point x="516" y="641"/>
      <point x="74" y="881"/>
    </contour>
    <contour>
      <point x="632" y="1087" type="qcurve" smooth="yes"/>
      <point x="632" y="944"/>
      <point x="737" y="768"/>
      <point x="818" y="768" type="qcurve" smooth="yes"/>
      <point x="905" y="768"/>
      <point x="1005" y="926"/>
      <point x="1005" y="1087" type="qcurve" smooth="yes"/>
      <point x="1005" y="1234"/>
      <point x="901" y="1391"/>
      <point x="819" y="1391" type="qcurve" smooth="yes"/>
      <point x="730" y="1391"/>
      <point x="631" y="1251"/>
    </contour>
    <contour>
      <point x="875" y="28" type="line"/>
      <point x="2264" y="1529" type="line"/>
      <point x="2369" y="1461" type="line"/>
      <point x="980" y="-43" type="line"/>
    </contour>
    <contour>
      <point x="1720" y="390" type="qcurve" smooth="yes"/>
      <point x="1720" y="577"/>
      <point x="2172" y="851"/>
      <point x="2465" y="851" type="qcurve" smooth="yes"/>
      <point x="2758" y="851"/>
      <point x="3213" y="595"/>
      <point x="3213" y="396" type="qcurve" smooth="yes"/>
      <point x="3213" y="231"/>
      <point x="2764" y="-30"/>
      <point x="2470" y="-30" type="qcurve" smooth="yes"/>
      <point x="2175" y="-30"/>
      <point x="1720" y="210"/>
    </contour>
    <contour>
      <point x="2278" y="407" type="qcurve" smooth="yes"/>
      <point x="2278" y="273"/>
      <point x="2383" y="98"/>
      <point x="2464" y="98" type="qcurve" smooth="yes"/>
      <point x="2552" y="98"/>
      <point x="2651" y="255"/>
      <point x="2651" y="396" type="qcurve" smooth="yes"/>
      <point x="2651" y="544"/>
      <point x="2547" y="719"/>
      <point x="2465" y="719" type="qcurve" smooth="yes"/>
      <point x="2377" y="719"/>
      <point x="2278" y="560"/>
    </contour>
    <contour>
      <point x="3312" y="390" type="qcurve" smooth="yes"/>
      <point x="3312" y="577"/>
      <point x="3764" y="851"/>
      <point x="4057" y="851" type="qcurve" smooth="yes"/>
      <point x="4350" y="851"/>
      <point x="4805" y="595"/>
      <point x="4805" y="396" type="qcurve" smooth="yes"/>
      <point x="4805" y="231"/>
      <point x="4355" y="-30"/>
      <point x="4061" y="-30" type="qcurve" smooth="yes"/>
      <point x="3767" y="-30"/>
      <point x="3312" y="210"/>
    </contour>
    <contour>
      <point x="3870" y="407" type="qcurve" smooth="yes"/>
      <point x="3870" y="273"/>
      <point x="3975" y="98"/>
      <point x="4056" y="98" type="qcurve" smooth="yes"/>
      <point x="4143" y="98"/>
      <point x="4243" y="255"/>
      <point x="4243" y="396" type="qcurve" smooth="yes"/>
      <point x="4243" y="544"/>
      <point x="4139" y="719"/>
      <point x="4057" y="719" type="qcurve" smooth="yes"/>
      <point x="3969" y="719"/>
      <point x="3870" y="560"/>
    </contour>
  </outline>
</glyph>
<glyph name="guilsinglleft" format="2">
  <advance width="1286"/>
  <unicode hex="2039"/>
  <outline>
    <contour>
      <point x="25" y="857" type="line"/>
      <point x="141" y="902"/>
      <point x="896" y="1373"/>
      <point x="981" y="1441" type="qcurve"/>
      <point x="1064" y="1412"/>
      <point x="1250" y="1106"/>
      <point x="1244" y="1019" type="qcurve"/>
      <point x="1091" y="921"/>
      <point x="738" y="729"/>
      <point x="622" y="694" type="qcurve"/>
      <point x="730" y="670"/>
      <point x="1145" y="443"/>
      <point x="1248" y="390" type="qcurve"/>
      <point x="1250" y="304"/>
      <point x="1077" y="-22"/>
      <point x="1010" y="-19" type="qcurve"/>
      <point x="911" y="56"/>
      <point x="189" y="450"/>
      <point x="29" y="534" type="qcurve"/>
    </contour>
  </outline>
</glyph>
<glyph name="guilsinglright" format="2">
  <advance width="1286"/>
  <unicode hex="203A"/>
  <outline>
    <contour>
      <point x="1261" y="564" type="line"/>
      <point x="1145" y="519"/>
      <point x="390" y="48"/>
      <point x="306" y="-20" type="qcurve"/>
      <point x="222" y="9"/>
      <point x="36" y="315"/>
      <point x="43" y="403" type="qcurve"/>
      <point x="193" y="499"/>
      <point x="549" y="692"/>
      <point x="665" y="727" type="qcurve"/>
      <point x="556" y="750"/>
      <point x="142" y="978"/>
      <point x="38" y="1032" type="qcurve"/>
      <point x="36" y="1117"/>
      <point x="209" y="1443"/>
      <point x="277" y="1440" type="qcurve"/>
      <point x="376" y="1365"/>
      <point x="1098" y="971"/>
      <point x="1257" y="887" type="qcurve"/>
    </contour>
  </outline>
</glyph>
<glyph name="fraction" format="2">
  <advance width="427"/>
  <unicode hex="2044"/>
  <outline>
    <contour>
      <point x="-420" y="27" type="line"/>
      <point x="738" y="1531" type="line"/>
      <point x="847" y="1461" type="line"/>
      <point x="-311" y="-43" type="line"/>
    </contour>
  </outline>
</glyph>
<glyph name="trademark" format="2">
  <advance width="2992"/>
  <unicode hex="2122"/>
  <outline>
    <contour>
      <point x="40" y="1138" type="line"/>
      <point x="40" y="1500" type="line"/>
      <point x="1290" y="1500" type="line"/>
      <point x="1290" y="1138" type="line"/>
      <point x="1177" y="1138" type="line"/>
      <point x="1135" y="1377" type="line"/>
      <point x="920" y="1377" type="line"/>
      <point x="893" y="1358" type="line"/>
      <point x="891" y="1054" type="line"/>
      <point x="891" y="847" type="line"/>
      <point x="1046" y="803" type="line"/>
      <point x="1046" y="700" type="line"/>
      <point x="283" y="700" type="line"/>
      <point x="283" y="803" type="line"/>
      <point x="440" y="847" type="line"/>
      <point x="440" y="1054" type="line"/>
      <point x="438" y="1358" type="line"/>
      <point x="420" y="1377" type="line"/>
      <point x="196" y="1377" type="line"/>
      <point x="153" y="1138" type="line"/>
    </contour>
    <contour>
      <point x="1276" y="702" type="line"/>
      <point x="1276" y="802" type="line"/>
      <point x="1427" y="845" type="line"/>
      <point x="1429" y="1055" type="line"/>
      <point x="1427" y="1343" type="line"/>
      <point x="1326" y="1385" type="line"/>
      <point x="1326" y="1500" type="line"/>
      <point x="1888" y="1500" type="line"/>
      <point x="2075" y="941" type="line"/>
      <point x="2259" y="1500" type="line"/>
      <point x="2941" y="1500" type="line"/>
      <point x="2941" y="1385" type="line"/>
      <point x="2770" y="1344" type="line"/>
      <point x="2768" y="1053" type="line"/>
      <point x="2770" y="843" type="line"/>
      <point x="2931" y="800" type="line"/>
      <point x="2931" y="700" type="line"/>
      <point x="2183" y="700" type="line"/>
      <point x="2183" y="800" type="line"/>
      <point x="2319" y="843" type="line"/>
      <point x="2321" y="1053" type="line"/>
      <point x="2319" y="1337" type="line"/>
      <point x="2110" y="712" type="line"/>
      <point x="1765" y="712" type="line"/>
      <point x="1536" y="1350" type="line"/>
      <point x="1534" y="1055" type="line"/>
      <point x="1536" y="845" type="line"/>
      <point x="1666" y="802" type="line"/>
      <point x="1666" y="702" type="line"/>
    </contour>
  </outline>
</glyph>
<glyph name="minus" format="2">
  <advance width="1533"/>
  <unicode hex="2212"/>
  <outline>
    <contour>
      <point x="80" y="411" type="line"/>
      <point x="80" y="857" type="line"/>
      <point x="1453" y="857" type="line"/>
      <point x="1453" y="411" type="line"/>
    </contour>
  </outline>
</glyph>
<glyph name="divisionslash" format="2">
  <advance width="668"/>
  <unicode hex="2215"/>
  <outline>
    <contour>
      <point x="-65" y="-119" type="line"/>
      <point x="561" y="1557" type="line"/>
      <point x="709" y="1511" type="line"/>
      <point x="84" y="-165" type="line"/>
    </contour>
  </outline>
</glyph>
<glyph name="lessequal" format="2">
  <advance width="1532"/>
  <unicode hex="2264"/>
  <outline>
    <contour>
      <point x="150" y="-140" type="line"/>
      <point x="150" y="240" type="line"/>
      <point x="1412" y="240" type="line"/>
      <point x="1412" y="-140" type="line"/>
    </contour>
    <contour>
      <point x="182" y="766" type="qcurve" smooth="yes"/>
      <point x="182" y="936"/>
      <point x="202" y="959"/>
      <point x="1172" y="1310" type="qcurve" smooth="yes"/>
      <point x="1251" y="1339"/>
      <point x="1425" y="998"/>
      <point x="1326" y="964" type="qcurve" smooth="yes"/>
      <point x="1267" y="945"/>
      <point x="790" y="797"/>
      <point x="739" y="783" type="qcurve"/>
      <point x="791" y="768"/>
      <point x="1269" y="618"/>
      <point x="1337" y="595" type="qcurve"/>
      <point x="1425" y="559"/>
      <point x="1250" y="230"/>
      <point x="1172" y="254" type="qcurve" smooth="yes"/>
      <point x="193" y="561"/>
      <point x="182" y="596"/>
    </contour>
  </outline>
</glyph>
<glyph name="greaterequal" format="2">
  <advance width="1542"/>
  <unicode hex="2265"/>
  <outline>
    <contour>
      <point x="166" y="-140" type="line"/>
      <point x="166" y="240" type="line"/>
      <point x="1428" y="240" type="line"/>
      <point x="1428" y="-140" type="line"/>
    </contour>
    <contour>
      <point x="1396" y="766" type="qcurve" smooth="yes"/>
      <point x="1396" y="596"/>
      <point x="1385" y="561"/>
      <point x="407" y="255" type="qcurve" smooth="yes"/>
      <point x="328" y="230"/>
      <point x="153" y="559"/>
      <point x="241" y="593" type="qcurve" smooth="yes"/>
      <point x="309" y="617"/>
      <point x="787" y="769"/>
      <point x="839" y="783" type="qcurve"/>
      <point x="788" y="797"/>
      <point x="311" y="947"/>
      <point x="253" y="967" type="qcurve" smooth="yes"/>
      <point x="154" y="1003"/>
      <point x="327" y="1339"/>
      <point x="406" y="1310" type="qcurve" smooth="yes"/>
      <point x="1377" y="959"/>
      <point x="1396" y="936"/>
    </contour>
  </outline>
</glyph>
<glyph name="leftanglebracket" format="2">
  <advance width="1102"/>
  <unicode hex="27E8"/>
  <outline>
    <contour>
      <point x="792" y="1538" type="line"/>
      <point x="1088" y="1265" type="line"/>
      <point x="477" y="733" type="line"/>
      <point x="1101" y="128" type="line"/>
      <point x="798" y="-175" type="line"/>
      <point x="24" y="553" type="line"/>
      <point x="24" y="910" type="line"/>
    </contour>
  </outline>
</glyph>
<glyph name="f_f_l" format="2">
  <advance width="2944"/>
  <unicode hex="FB04"/>
  <outline>
    <contour>
      <point x="58" y="0" type="line"/>
      <point x="58" y="86" type="line"/>
      <point x="283" y="131" type="line"/>
      <point x="285" y="558" type="line"/>
      <point x="283" y="901" type="line"/>
      <point x="64" y="915" type="line"/>
      <point x="55" y="1015" type="line"/>
      <point x="284" y="1035" type="line"/>
      <point x="285" y="1085" type="line" smooth="yes"/>
      <point x="290" y="1289"/>
      <point x="624" y="1497"/>
      <point x="873" y="1497" type="qcurve" smooth="yes"/>
      <point x="980" y="1497"/>
      <point x="1108" y="1470"/>
      <point x="1138" y="1461" type="qcurve" smooth="yes"/>
      <point x="1161" y="1454" type="line"/>
      <point x="1147" y="1338" type="line"/>
      <point x="1126" y="1343" type="line"/>
      <point x="1113" y="1347"/>
      <point x="1032" y="1362"/>
      <point x="945" y="1362" type="qcurve" smooth="yes"/>
      <point x="900" y="1362"/>
      <point x="837" y="1281"/>
      <point x="839" y="1139" type="qcurve" smooth="yes"/>
      <point x="841" y="1035" type="line"/>
      <point x="1191" y="1032" type="line"/>
      <point x="1192" y="1143" type="line" smooth="yes"/>
      <point x="1194" y="1352"/>
      <point x="1409" y="1568"/>
      <point x="1561" y="1568" type="qcurve" smooth="yes"/>
      <point x="1718" y="1568"/>
      <point x="1887" y="1522"/>
      <point x="1910" y="1512" type="qcurve" smooth="yes"/>
      <point x="1957" y="1491" type="line"/>
      <point x="2584" y="1535" type="line"/>
      <point x="2632" y="1532" type="line"/>
      <point x="2654" y="1491" type="line"/>
      <point x="2653" y="522" type="line"/>
      <point x="2654" y="130" type="line"/>
      <point x="2878" y="85" type="line"/>
      <point x="2878" y="0" type="line"/>
      <point x="1964" y="0" type="line"/>
      <point x="1964" y="85" type="line"/>
      <point x="2090" y="130" type="line"/>
      <point x="2092" y="523" type="line"/>
      <point x="2090" y="1360" type="line"/>
      <point x="1913" y="1392" type="line" smooth="yes"/>
      <point x="1899" y="1394"/>
      <point x="1844" y="1398"/>
      <point x="1838" y="1398" type="qcurve" smooth="yes"/>
      <point x="1797" y="1398"/>
      <point x="1745" y="1342"/>
      <point x="1746" y="1248" type="qcurve" smooth="yes"/>
      <point x="1748" y="1035" type="line"/>
      <point x="1959" y="1035" type="line"/>
      <point x="1959" y="926" type="line"/>
      <point x="1748" y="912" type="line"/>
      <point x="1750" y="538" type="line"/>
      <point x="1761" y="131" type="line"/>
      <point x="1915" y="86" type="line"/>
      <point x="1915" y="0" type="line"/>
      <point x="1014" y="-1" type="line"/>
      <point x="1014" y="85" type="line"/>
      <point x="1190" y="131" type="line"/>
      <point x="1192" y="558" type="line"/>
      <point x="1190" y="911" type="line"/>
      <point x="1131" y="917" type="line"/>
      <point x="841" y="917" type="line"/>
      <point x="843" y="538" type="line"/>
      <point x="853" y="131" type="line"/>
      <point x="977" y="85" type="line"/>
      <point x="977" y="0" type="line"/>
    </contour>
  </outline>
</glyph>
<glyph name="breveinverted" format="2">
  <advance width="1024"/>
  <outline>
    <contour>
      <point x="238" y="1238" type="qcurve"/>
      <point x="160" y="1291" type="line"/>
      <point x="175" y="1384"/>
      <point x="386" y="1558"/>
      <point x="511" y="1558" type="qcurve" smooth="yes"/>
      <point x="640" y="1558"/>
      <point x="851" y="1384"/>
      <point x="864" y="1291" type="qcurve"/>
      <point x="786" y="1238" type="line"/>
      <point x="759" y="1292"/>
      <point x="611" y="1402"/>
      <point x="512" y="1402" type="qcurve" smooth="yes"/>
      <point x="415" y="1402"/>
      <point x="267" y="1292"/>
    </contour>
  </outline>
</glyph>
<glyph name="circumflex_acute" format="2">
  <advance width="1024"/>
  <outline>
    <contour>
      <point x="512" y="1521" type="qcurve" smooth="yes"/>
      <point x="546" y="1521"/>
      <point x="588" y="1487"/>
      <point x="622" y="1448" type="qcurve" smooth="yes"/>
      <point x="825" y="1215" type="line"/>
      <point x="747" y="1142" type="line"/>
      <point x="510" y="1345" type="line"/>
      <point x="277" y="1142" type="line"/>
      <point x="199" y="1215" type="line"/>
      <point x="402" y="1448" type="line" smooth="yes"/>
      <point x="444" y="1496"/>
      <point x="478" y="1521"/>
    </contour>
    <contour>
      <point x="749" y="1792" type="qcurve" smooth="yes"/>
      <point x="740" y="1746"/>
      <point x="694" y="1711"/>
      <point x="648" y="1691" type="qcurve" smooth="yes"/>
      <point x="313" y="1542" type="line"/>
      <point x="254" y="1630" type="line"/>
      <point x="502" y="1815" type="line" smooth="yes"/>
      <point x="543" y="1846"/>
      <point x="633" y="1892"/>
      <point x="669" y="1886" type="qcurve" smooth="yes"/>
      <point x="703" y="1880"/>
      <point x="755" y="1826"/>
    </contour>
  </outline>
</glyph>
<glyph name="circumflex_hookabove" format="2">
  <advance width="1024"/>
  <outline>
    <contour>
      <point x="512" y="1531" type="qcurve" smooth="yes"/>
      <point x="546" y="1531"/>
      <point x="591" y="1500"/>
      <point x="622" y="1458" type="qcurve"/>
      <point x="825" y="1215" type="line"/>
      <point x="747" y="1142" type="line"/>
      <point x="512" y="1357" type="line"/>
      <point x="277" y="1142" type="line"/>
      <point x="199" y="1215" type="line"/>
      <point x="402" y="1458" type="line" smooth="yes"/>
      <point x="443" y="1507"/>
      <point x="478" y="1531"/>
    </contour>
    <contour>
      <point x="881" y="1008" type="line"/>
      <point x="881" y="1148" type="line"/>
      <point x="949" y="1243" type="line"/>
      <point x="965" y="1236"/>
      <point x="1015" y="1229"/>
      <point x="1036" y="1229" type="qcurve" smooth="yes"/>
      <point x="1088" y="1229"/>
      <point x="1132" y="1274"/>
      <point x="1132" y="1319" type="qcurve" smooth="yes"/>
      <point x="1132" y="1363"/>
      <point x="1061" y="1415"/>
      <point x="1017" y="1415" type="qcurve" smooth="yes"/>
      <point x="953" y="1415"/>
      <point x="834" y="1392"/>
      <point x="796" y="1374" type="qcurve"/>
      <point x="744" y="1483" type="line"/>
      <point x="804" y="1518"/>
      <point x="963" y="1539"/>
      <point x="1030" y="1539" type="qcurve" smooth="yes"/>
      <point x="1150" y="1539"/>
      <point x="1295" y="1425"/>
      <point x="1295" y="1320" type="qcurve" smooth="yes"/>
      <point x="1295" y="1228"/>
      <point x="1184" y="1112"/>
      <point x="1108" y="1112" type="qcurve" smooth="yes"/>
      <point x="1078" y="1112"/>
      <point x="1020" y="1121"/>
      <point x="1004" y="1125" type="qcurve"/>
      <point x="1004" y="1008" type="line"/>
    </contour>
  </outline>
</glyph>
<glyph name="five.tnum" format="2">
  <advance width="1800"/>
  <outline>
    <contour>
      <point x="2" y="146" type="qcurve"/>
      <point x="59" y="253" type="line"/>
      <point x="158" y="190"/>
      <point x="425" y="119"/>
      <point x="636" y="119" type="qcurve" smooth="yes"/>
      <point x="810" y="118"/>
      <point x="989" y="291"/>
      <point x="989" y="466" type="qcurve" smooth="yes"/>
      <point x="989" y="637"/>
      <point x="685" y="792"/>
      <point x="465" y="792" type="qcurve" smooth="yes"/>
      <point x="223" y="792" type="line"/>
      <point x="131" y="873" type="line"/>
      <point x="218" y="1433" type="line"/>
      <point x="296" y="1500" type="line"/>
      <point x="1451" y="1500" type="line"/>
      <point x="1417" y="1024" type="line"/>
      <point x="288" y="1024" type="line"/>
      <point x="270" y="1005" type="line"/>
      <point x="255" y="913" type="line"/>
      <point x="480" y="950" type="line"/>
      <point x="1076" y="950"/>
      <point x="1581" y="720"/>
      <point x="1581" y="502" type="qcurve" smooth="yes"/>
      <point x="1581" y="287"/>
      <point x="1121" y="-22"/>
      <point x="762" y="-22" type="qcurve" smooth="yes"/>
      <point x="414" y="-22"/>
      <point x="98" y="77"/>
    </contour>
  </outline>
</glyph>
